<svg width="2589" height="560" viewBox="0 0 2589 560" fill="none" xmlns="http://www.w3.org/2000/svg">
<g clip-path="url(#clip0_8_2)">
<rect width="2589" height="560" fill="white"/>
<g filter="url(#filter0_d_8_2)">
<rect x="48" y="58" width="2494" height="444" rx="93" fill="#9A1D2E"/>
</g>
<path d="M595.545 273.636H572.818C572.515 271.303 571.894 269.197 570.955 267.318C570.015 265.439 568.773 263.833 567.227 262.5C565.682 261.167 563.848 260.152 561.727 259.455C559.636 258.727 557.318 258.364 554.773 258.364C550.258 258.364 546.364 259.47 543.091 261.682C539.848 263.894 537.348 267.091 535.591 271.273C533.864 275.455 533 280.515 533 286.455C533 292.636 533.879 297.818 535.636 302C537.424 306.152 539.924 309.288 543.136 311.409C546.379 313.5 550.212 314.545 554.636 314.545C557.121 314.545 559.379 314.227 561.409 313.591C563.47 312.955 565.273 312.03 566.818 310.818C568.394 309.576 569.682 308.076 570.682 306.318C571.712 304.53 572.424 302.515 572.818 300.273L595.545 300.409C595.152 304.53 593.955 308.591 591.955 312.591C589.985 316.591 587.273 320.242 583.818 323.545C580.364 326.818 576.152 329.424 571.182 331.364C566.242 333.303 560.576 334.273 554.182 334.273C545.758 334.273 538.212 332.424 531.545 328.727C524.909 325 519.667 319.576 515.818 312.455C511.97 305.333 510.045 296.667 510.045 286.455C510.045 276.212 512 267.53 515.909 260.409C519.818 253.288 525.106 247.879 531.773 244.182C538.439 240.485 545.909 238.636 554.182 238.636C559.818 238.636 565.03 239.424 569.818 241C574.606 242.545 578.818 244.818 582.455 247.818C586.091 250.788 589.045 254.439 591.318 258.773C593.591 263.106 595 268.061 595.545 273.636ZM630.648 239.909V333H608.42V239.909H630.648ZM644.795 333V263.182H667.023V333H644.795ZM655.932 255.045C652.811 255.045 650.129 254.015 647.886 251.955C645.644 249.864 644.523 247.348 644.523 244.409C644.523 241.5 645.644 239.015 647.886 236.955C650.129 234.864 652.811 233.818 655.932 233.818C659.083 233.818 661.765 234.864 663.977 236.955C666.22 239.015 667.341 241.5 667.341 244.409C667.341 247.348 666.22 249.864 663.977 251.955C661.765 254.015 659.083 255.045 655.932 255.045ZM713.761 334.318C706.398 334.318 700.08 332.803 694.807 329.773C689.564 326.742 685.534 322.53 682.716 317.136C679.898 311.712 678.489 305.439 678.489 298.318C678.489 291.167 679.898 284.894 682.716 279.5C685.564 274.076 689.61 269.848 694.852 266.818C700.125 263.788 706.413 262.273 713.716 262.273C720.17 262.273 725.792 263.439 730.58 265.773C735.398 268.106 739.155 271.409 741.852 275.682C744.58 279.924 746.019 284.909 746.17 290.636H725.398C724.973 287.061 723.761 284.258 721.761 282.227C719.792 280.197 717.216 279.182 714.034 279.182C711.458 279.182 709.201 279.909 707.261 281.364C705.322 282.788 703.807 284.909 702.716 287.727C701.655 290.515 701.125 293.97 701.125 298.091C701.125 302.212 701.655 305.697 702.716 308.545C703.807 311.364 705.322 313.5 707.261 314.955C709.201 316.379 711.458 317.091 714.034 317.091C716.095 317.091 717.913 316.652 719.489 315.773C721.095 314.894 722.413 313.606 723.443 311.909C724.473 310.182 725.125 308.091 725.398 305.636H746.17C745.958 311.394 744.519 316.424 741.852 320.727C739.216 325.03 735.504 328.379 730.716 330.773C725.958 333.136 720.307 334.318 713.761 334.318ZM777.591 314.682L777.682 288.182H780.773L800.409 263.182H825.591L796.409 299H790.545L777.591 314.682ZM757.545 333V239.909H779.773V333H757.545ZM800.909 333L782.636 304L797.273 288.227L826.591 333H800.909ZM900.455 263.182V279.545H856.409V263.182H900.455ZM865.636 246.455H887.864V311.045C887.864 312.409 888.076 313.515 888.5 314.364C888.955 315.182 889.606 315.773 890.455 316.136C891.303 316.47 892.318 316.636 893.5 316.636C894.348 316.636 895.242 316.561 896.182 316.409C897.152 316.227 897.879 316.076 898.364 315.955L901.727 332C900.667 332.303 899.167 332.682 897.227 333.136C895.318 333.591 893.03 333.879 890.364 334C885.152 334.242 880.682 333.636 876.955 332.182C873.258 330.697 870.424 328.394 868.455 325.273C866.515 322.152 865.576 318.227 865.636 313.5V246.455ZM943.636 334.318C936.303 334.318 930 332.818 924.727 329.818C919.485 326.788 915.439 322.576 912.591 317.182C909.773 311.758 908.364 305.47 908.364 298.318C908.364 291.136 909.773 284.848 912.591 279.455C915.439 274.03 919.485 269.818 924.727 266.818C930 263.788 936.303 262.273 943.636 262.273C950.97 262.273 957.258 263.788 962.5 266.818C967.773 269.818 971.818 274.03 974.636 279.455C977.485 284.848 978.909 291.136 978.909 298.318C978.909 305.47 977.485 311.758 974.636 317.182C971.818 322.576 967.773 326.788 962.5 329.818C957.258 332.818 950.97 334.318 943.636 334.318ZM943.773 317.545C946.439 317.545 948.697 316.727 950.545 315.091C952.394 313.455 953.803 311.182 954.773 308.273C955.773 305.364 956.273 302 956.273 298.182C956.273 294.303 955.773 290.909 954.773 288C953.803 285.091 952.394 282.818 950.545 281.182C948.697 279.545 946.439 278.727 943.773 278.727C941.015 278.727 938.682 279.545 936.773 281.182C934.894 282.818 933.455 285.091 932.455 288C931.485 290.909 931 294.303 931 298.182C931 302 931.485 305.364 932.455 308.273C933.455 311.182 934.894 313.455 936.773 315.091C938.682 316.727 941.015 317.545 943.773 317.545ZM1017.8 263.182H1040.02V335.909C1040.02 341.667 1038.84 346.242 1036.48 349.636C1034.14 353.03 1030.84 355.47 1026.57 356.955C1022.3 358.439 1017.25 359.182 1011.43 359.182C1010.64 359.182 1009.9 359.167 1009.2 359.136C1008.51 359.106 1007.75 359.076 1006.93 359.045V342.182C1007.48 342.242 1007.96 342.288 1008.39 342.318C1008.81 342.348 1009.23 342.364 1009.66 342.364C1012.72 342.364 1014.84 341.788 1016.02 340.636C1017.2 339.515 1017.8 337.788 1017.8 335.455V263.182ZM1028.89 255.045C1025.77 255.045 1023.08 254.015 1020.84 251.955C1018.6 249.864 1017.48 247.348 1017.48 244.409C1017.48 241.5 1018.6 239.015 1020.84 236.955C1023.08 234.864 1025.77 233.818 1028.89 233.818C1032.04 233.818 1034.72 234.864 1036.93 236.955C1039.17 239.015 1040.3 241.5 1040.3 244.409C1040.3 247.348 1039.17 249.864 1036.93 251.955C1034.72 254.015 1032.04 255.045 1028.89 255.045ZM1086.76 334.318C1079.43 334.318 1073.13 332.818 1067.85 329.818C1062.61 326.788 1058.56 322.576 1055.72 317.182C1052.9 311.758 1051.49 305.47 1051.49 298.318C1051.49 291.136 1052.9 284.848 1055.72 279.455C1058.56 274.03 1062.61 269.818 1067.85 266.818C1073.13 263.788 1079.43 262.273 1086.76 262.273C1094.09 262.273 1100.38 263.788 1105.62 266.818C1110.9 269.818 1114.94 274.03 1117.76 279.455C1120.61 284.848 1122.03 291.136 1122.03 298.318C1122.03 305.47 1120.61 311.758 1117.76 317.182C1114.94 322.576 1110.9 326.788 1105.62 329.818C1100.38 332.818 1094.09 334.318 1086.76 334.318ZM1086.9 317.545C1089.56 317.545 1091.82 316.727 1093.67 315.091C1095.52 313.455 1096.93 311.182 1097.9 308.273C1098.9 305.364 1099.4 302 1099.4 298.182C1099.4 294.303 1098.9 290.909 1097.9 288C1096.93 285.091 1095.52 282.818 1093.67 281.182C1091.82 279.545 1089.56 278.727 1086.9 278.727C1084.14 278.727 1081.81 279.545 1079.9 281.182C1078.02 282.818 1076.58 285.091 1075.58 288C1074.61 290.909 1074.12 294.303 1074.12 298.182C1074.12 302 1074.61 305.364 1075.58 308.273C1076.58 311.182 1078.02 313.455 1079.9 315.091C1081.81 316.727 1084.14 317.545 1086.9 317.545ZM1133.42 333V263.182H1155.65V333H1133.42ZM1144.56 255.045C1141.44 255.045 1138.75 254.015 1136.51 251.955C1134.27 249.864 1133.15 247.348 1133.15 244.409C1133.15 241.5 1134.27 239.015 1136.51 236.955C1138.75 234.864 1141.44 233.818 1144.56 233.818C1147.71 233.818 1150.39 234.864 1152.6 236.955C1154.84 239.015 1155.97 241.5 1155.97 244.409C1155.97 247.348 1154.84 249.864 1152.6 251.955C1150.39 254.015 1147.71 255.045 1144.56 255.045ZM1192.02 293.182V333H1169.8V263.182H1190.93V276H1191.7C1193.25 271.727 1195.89 268.379 1199.61 265.955C1203.34 263.5 1207.78 262.273 1212.93 262.273C1217.84 262.273 1222.1 263.379 1225.7 265.591C1229.34 267.773 1232.16 270.833 1234.16 274.773C1236.19 278.682 1237.19 283.258 1237.16 288.5V333H1214.93V292.864C1214.96 288.985 1213.98 285.955 1211.98 283.773C1210.01 281.591 1207.27 280.5 1203.75 280.5C1201.42 280.5 1199.36 281.015 1197.57 282.045C1195.81 283.045 1194.45 284.485 1193.48 286.364C1192.54 288.242 1192.05 290.515 1192.02 293.182ZM1275.38 258.182V239.909H1354.06V258.182H1325.83V333H1303.65V258.182H1275.38ZM1387.56 334.318C1380.25 334.318 1373.95 332.879 1368.65 330C1363.38 327.091 1359.31 322.955 1356.47 317.591C1353.65 312.197 1352.24 305.788 1352.24 298.364C1352.24 291.152 1353.66 284.848 1356.51 279.455C1359.36 274.03 1363.38 269.818 1368.56 266.818C1373.74 263.788 1379.84 262.273 1386.88 262.273C1391.84 262.273 1396.39 263.045 1400.51 264.591C1404.63 266.136 1408.19 268.424 1411.19 271.455C1414.19 274.485 1416.53 278.227 1418.19 282.682C1419.86 287.106 1420.69 292.182 1420.69 297.909V303.455H1360.01V290.545H1400.01C1399.98 288.182 1399.42 286.076 1398.33 284.227C1397.24 282.379 1395.74 280.939 1393.83 279.909C1391.95 278.848 1389.78 278.318 1387.33 278.318C1384.84 278.318 1382.62 278.879 1380.65 280C1378.68 281.091 1377.12 282.591 1375.97 284.5C1374.81 286.379 1374.21 288.515 1374.15 290.909V304.045C1374.15 306.894 1374.71 309.394 1375.83 311.545C1376.95 313.667 1378.54 315.318 1380.6 316.5C1382.66 317.682 1385.12 318.273 1387.97 318.273C1389.94 318.273 1391.72 318 1393.33 317.455C1394.94 316.909 1396.31 316.106 1397.47 315.045C1398.62 313.985 1399.48 312.682 1400.06 311.136L1420.47 311.727C1419.62 316.303 1417.75 320.288 1414.88 323.682C1412.03 327.045 1408.28 329.667 1403.65 331.545C1399.01 333.394 1393.65 334.318 1387.56 334.318ZM1464.64 334.318C1457.27 334.318 1450.95 332.803 1445.68 329.773C1440.44 326.742 1436.41 322.53 1433.59 317.136C1430.77 311.712 1429.36 305.439 1429.36 298.318C1429.36 291.167 1430.77 284.894 1433.59 279.5C1436.44 274.076 1440.48 269.848 1445.73 266.818C1451 263.788 1457.29 262.273 1464.59 262.273C1471.05 262.273 1476.67 263.439 1481.45 265.773C1486.27 268.106 1490.03 271.409 1492.73 275.682C1495.45 279.924 1496.89 284.909 1497.05 290.636H1476.27C1475.85 287.061 1474.64 284.258 1472.64 282.227C1470.67 280.197 1468.09 279.182 1464.91 279.182C1462.33 279.182 1460.08 279.909 1458.14 281.364C1456.2 282.788 1454.68 284.909 1453.59 287.727C1452.53 290.515 1452 293.97 1452 298.091C1452 302.212 1452.53 305.697 1453.59 308.545C1454.68 311.364 1456.2 313.5 1458.14 314.955C1460.08 316.379 1462.33 317.091 1464.91 317.091C1466.97 317.091 1468.79 316.652 1470.36 315.773C1471.97 314.894 1473.29 313.606 1474.32 311.909C1475.35 310.182 1476 308.091 1476.27 305.636H1497.05C1496.83 311.394 1495.39 316.424 1492.73 320.727C1490.09 325.03 1486.38 328.379 1481.59 330.773C1476.83 333.136 1471.18 334.318 1464.64 334.318ZM1530.65 293.182V333H1508.42V239.909H1529.92V276H1530.69C1532.27 271.697 1534.84 268.333 1538.42 265.909C1542.03 263.485 1546.44 262.273 1551.65 262.273C1556.56 262.273 1560.83 263.364 1564.47 265.545C1568.1 267.697 1570.92 270.742 1572.92 274.682C1574.95 278.621 1575.95 283.227 1575.92 288.5V333H1553.69V292.864C1553.72 288.985 1552.75 285.955 1550.78 283.773C1548.81 281.591 1546.04 280.5 1542.47 280.5C1540.13 280.5 1538.07 281.015 1536.28 282.045C1534.53 283.045 1533.15 284.485 1532.15 286.364C1531.18 288.242 1530.68 290.515 1530.65 293.182ZM1701.8 273.636H1679.07C1678.77 271.303 1678.14 269.197 1677.2 267.318C1676.27 265.439 1675.02 263.833 1673.48 262.5C1671.93 261.167 1670.1 260.152 1667.98 259.455C1665.89 258.727 1663.57 258.364 1661.02 258.364C1656.51 258.364 1652.61 259.47 1649.34 261.682C1646.1 263.894 1643.6 267.091 1641.84 271.273C1640.11 275.455 1639.25 280.515 1639.25 286.455C1639.25 292.636 1640.13 297.818 1641.89 302C1643.67 306.152 1646.17 309.288 1649.39 311.409C1652.63 313.5 1656.46 314.545 1660.89 314.545C1663.37 314.545 1665.63 314.227 1667.66 313.591C1669.72 312.955 1671.52 312.03 1673.07 310.818C1674.64 309.576 1675.93 308.076 1676.93 306.318C1677.96 304.53 1678.67 302.515 1679.07 300.273L1701.8 300.409C1701.4 304.53 1700.2 308.591 1698.2 312.591C1696.23 316.591 1693.52 320.242 1690.07 323.545C1686.61 326.818 1682.4 329.424 1677.43 331.364C1672.49 333.303 1666.83 334.273 1660.43 334.273C1652.01 334.273 1644.46 332.424 1637.8 328.727C1631.16 325 1625.92 319.576 1622.07 312.455C1618.22 305.333 1616.3 296.667 1616.3 286.455C1616.3 276.212 1618.25 267.53 1622.16 260.409C1626.07 253.288 1631.36 247.879 1638.02 244.182C1644.69 240.485 1652.16 238.636 1660.43 238.636C1666.07 238.636 1671.28 239.424 1676.07 241C1680.86 242.545 1685.07 244.818 1688.7 247.818C1692.34 250.788 1695.3 254.439 1697.57 258.773C1699.84 263.106 1701.25 268.061 1701.8 273.636ZM1747.26 334.318C1739.93 334.318 1733.63 332.818 1728.35 329.818C1723.11 326.788 1719.06 322.576 1716.22 317.182C1713.4 311.758 1711.99 305.47 1711.99 298.318C1711.99 291.136 1713.4 284.848 1716.22 279.455C1719.06 274.03 1723.11 269.818 1728.35 266.818C1733.63 263.788 1739.93 262.273 1747.26 262.273C1754.59 262.273 1760.88 263.788 1766.12 266.818C1771.4 269.818 1775.44 274.03 1778.26 279.455C1781.11 284.848 1782.53 291.136 1782.53 298.318C1782.53 305.47 1781.11 311.758 1778.26 317.182C1775.44 322.576 1771.4 326.788 1766.12 329.818C1760.88 332.818 1754.59 334.318 1747.26 334.318ZM1747.4 317.545C1750.06 317.545 1752.32 316.727 1754.17 315.091C1756.02 313.455 1757.43 311.182 1758.4 308.273C1759.4 305.364 1759.9 302 1759.9 298.182C1759.9 294.303 1759.4 290.909 1758.4 288C1757.43 285.091 1756.02 282.818 1754.17 281.182C1752.32 279.545 1750.06 278.727 1747.4 278.727C1744.64 278.727 1742.31 279.545 1740.4 281.182C1738.52 282.818 1737.08 285.091 1736.08 288C1735.11 290.909 1734.62 294.303 1734.62 298.182C1734.62 302 1735.11 305.364 1736.08 308.273C1737.08 311.182 1738.52 313.455 1740.4 315.091C1742.31 316.727 1744.64 317.545 1747.4 317.545ZM1793.92 333V263.182H1815.06V276H1815.83C1817.28 271.758 1819.74 268.409 1823.19 265.955C1826.65 263.5 1830.77 262.273 1835.56 262.273C1840.41 262.273 1844.56 263.515 1848.01 266C1851.47 268.485 1853.66 271.818 1854.6 276H1855.33C1856.63 271.848 1859.18 268.53 1862.97 266.045C1866.75 263.53 1871.22 262.273 1876.38 262.273C1882.98 262.273 1888.34 264.394 1892.47 268.636C1896.59 272.848 1898.65 278.636 1898.65 286V333H1876.42V291.091C1876.42 287.606 1875.53 284.955 1873.74 283.136C1871.95 281.288 1869.63 280.364 1866.78 280.364C1863.72 280.364 1861.31 281.364 1859.56 283.364C1857.83 285.333 1856.97 287.985 1856.97 291.318V333H1835.6V290.864C1835.6 287.621 1834.72 285.061 1832.97 283.182C1831.21 281.303 1828.89 280.364 1826.01 280.364C1824.07 280.364 1822.36 280.833 1820.88 281.773C1819.39 282.682 1818.22 283.985 1817.38 285.682C1816.56 287.379 1816.15 289.379 1816.15 291.682V333H1793.92ZM1912.42 333V263.182H1933.56V276H1934.33C1935.78 271.758 1938.24 268.409 1941.69 265.955C1945.15 263.5 1949.27 262.273 1954.06 262.273C1958.91 262.273 1963.06 263.515 1966.51 266C1969.97 268.485 1972.16 271.818 1973.1 276H1973.83C1975.13 271.848 1977.68 268.53 1981.47 266.045C1985.25 263.53 1989.72 262.273 1994.88 262.273C2001.48 262.273 2006.84 264.394 2010.97 268.636C2015.09 272.848 2017.15 278.636 2017.15 286V333H1994.92V291.091C1994.92 287.606 1994.03 284.955 1992.24 283.136C1990.45 281.288 1988.13 280.364 1985.28 280.364C1982.22 280.364 1979.81 281.364 1978.06 283.364C1976.33 285.333 1975.47 287.985 1975.47 291.318V333H1954.1V290.864C1954.1 287.621 1953.22 285.061 1951.47 283.182C1949.71 281.303 1947.39 280.364 1944.51 280.364C1942.57 280.364 1940.86 280.833 1939.38 281.773C1937.89 282.682 1936.72 283.985 1935.88 285.682C1935.06 287.379 1934.65 289.379 1934.65 291.682V333H1912.42ZM2030.92 333V263.182H2053.15V333H2030.92ZM2042.06 255.045C2038.94 255.045 2036.25 254.015 2034.01 251.955C2031.77 249.864 2030.65 247.348 2030.65 244.409C2030.65 241.5 2031.77 239.015 2034.01 236.955C2036.25 234.864 2038.94 233.818 2042.06 233.818C2045.21 233.818 2047.89 234.864 2050.1 236.955C2052.34 239.015 2053.47 241.5 2053.47 244.409C2053.47 247.348 2052.34 249.864 2050.1 251.955C2047.89 254.015 2045.21 255.045 2042.06 255.045ZM2106.7 263.182V279.545H2062.66V263.182H2106.7ZM2071.89 246.455H2094.11V311.045C2094.11 312.409 2094.33 313.515 2094.75 314.364C2095.2 315.182 2095.86 315.773 2096.7 316.136C2097.55 316.47 2098.57 316.636 2099.75 316.636C2100.6 316.636 2101.49 316.561 2102.43 316.409C2103.4 316.227 2104.13 316.076 2104.61 315.955L2107.98 332C2106.92 332.303 2105.42 332.682 2103.48 333.136C2101.57 333.591 2099.28 333.879 2096.61 334C2091.4 334.242 2086.93 333.636 2083.2 332.182C2079.51 330.697 2076.67 328.394 2074.7 325.273C2072.77 322.152 2071.83 318.227 2071.89 313.5V246.455ZM2157.45 263.182V279.545H2113.41V263.182H2157.45ZM2122.64 246.455H2144.86V311.045C2144.86 312.409 2145.08 313.515 2145.5 314.364C2145.95 315.182 2146.61 315.773 2147.45 316.136C2148.3 316.47 2149.32 316.636 2150.5 316.636C2151.35 316.636 2152.24 316.561 2153.18 316.409C2154.15 316.227 2154.88 316.076 2155.36 315.955L2158.73 332C2157.67 332.303 2156.17 332.682 2154.23 333.136C2152.32 333.591 2150.03 333.879 2147.36 334C2142.15 334.242 2137.68 333.636 2133.95 332.182C2130.26 330.697 2127.42 328.394 2125.45 325.273C2123.52 322.152 2122.58 318.227 2122.64 313.5V246.455ZM2200.68 334.318C2193.38 334.318 2187.08 332.879 2181.77 330C2176.5 327.091 2172.44 322.955 2169.59 317.591C2166.77 312.197 2165.36 305.788 2165.36 298.364C2165.36 291.152 2166.79 284.848 2169.64 279.455C2172.48 274.03 2176.5 269.818 2181.68 266.818C2186.86 263.788 2192.97 262.273 2200 262.273C2204.97 262.273 2209.52 263.045 2213.64 264.591C2217.76 266.136 2221.32 268.424 2224.32 271.455C2227.32 274.485 2229.65 278.227 2231.32 282.682C2232.98 287.106 2233.82 292.182 2233.82 297.909V303.455H2173.14V290.545H2213.14C2213.11 288.182 2212.55 286.076 2211.45 284.227C2210.36 282.379 2208.86 280.939 2206.95 279.909C2205.08 278.848 2202.91 278.318 2200.45 278.318C2197.97 278.318 2195.74 278.879 2193.77 280C2191.8 281.091 2190.24 282.591 2189.09 284.5C2187.94 286.379 2187.33 288.515 2187.27 290.909V304.045C2187.27 306.894 2187.83 309.394 2188.95 311.545C2190.08 313.667 2191.67 315.318 2193.73 316.5C2195.79 317.682 2198.24 318.273 2201.09 318.273C2203.06 318.273 2204.85 318 2206.45 317.455C2208.06 316.909 2209.44 316.106 2210.59 315.045C2211.74 313.985 2212.61 312.682 2213.18 311.136L2233.59 311.727C2232.74 316.303 2230.88 320.288 2228 323.682C2225.15 327.045 2221.41 329.667 2216.77 331.545C2212.14 333.394 2206.77 334.318 2200.68 334.318ZM2277.81 334.318C2270.5 334.318 2264.2 332.879 2258.9 330C2253.63 327.091 2249.56 322.955 2246.72 317.591C2243.9 312.197 2242.49 305.788 2242.49 298.364C2242.49 291.152 2243.91 284.848 2246.76 279.455C2249.61 274.03 2253.62 269.818 2258.81 266.818C2263.99 263.788 2270.09 262.273 2277.12 262.273C2282.09 262.273 2286.64 263.045 2290.76 264.591C2294.88 266.136 2298.44 268.424 2301.44 271.455C2304.44 274.485 2306.78 278.227 2308.44 282.682C2310.11 287.106 2310.94 292.182 2310.94 297.909V303.455H2250.26V290.545H2290.26C2290.23 288.182 2289.67 286.076 2288.58 284.227C2287.49 282.379 2285.99 280.939 2284.08 279.909C2282.2 278.848 2280.03 278.318 2277.58 278.318C2275.09 278.318 2272.87 278.879 2270.9 280C2268.93 281.091 2267.37 282.591 2266.22 284.5C2265.06 286.379 2264.46 288.515 2264.4 290.909V304.045C2264.4 306.894 2264.96 309.394 2266.08 311.545C2267.2 313.667 2268.79 315.318 2270.85 316.5C2272.91 317.682 2275.37 318.273 2278.22 318.273C2280.19 318.273 2281.97 318 2283.58 317.455C2285.19 316.909 2286.56 316.106 2287.72 315.045C2288.87 313.985 2289.73 312.682 2290.31 311.136L2310.72 311.727C2309.87 316.303 2308 320.288 2305.12 323.682C2302.28 327.045 2298.53 329.667 2293.9 331.545C2289.26 333.394 2283.9 334.318 2277.81 334.318ZM2348.43 239.909L2346.34 304.5H2327.66L2325.57 239.909H2348.43ZM2336.98 334.318C2333.73 334.318 2330.95 333.167 2328.61 330.864C2326.31 328.561 2325.16 325.773 2325.16 322.5C2325.16 319.288 2326.31 316.545 2328.61 314.273C2330.95 311.97 2333.73 310.818 2336.98 310.818C2340.1 310.818 2342.84 311.97 2345.2 314.273C2347.6 316.545 2348.8 319.288 2348.8 322.5C2348.8 324.682 2348.23 326.667 2347.11 328.455C2346.02 330.242 2344.58 331.667 2342.8 332.727C2341.04 333.788 2339.1 334.318 2336.98 334.318Z" fill="white"/>
<g clip-path="url(#clip1_8_2)">
<path fill-rule="evenodd" clip-rule="evenodd" d="M339.029 223.188C339.029 221.513 338.364 219.908 337.181 218.724C335.997 217.54 334.391 216.875 332.717 216.875H248.938C243.915 216.875 239.098 218.87 235.547 222.422C231.995 225.973 230 230.79 230 235.812V362.062C230 367.085 231.995 371.902 235.547 375.453C239.098 379.005 243.915 381 248.938 381H375.188C380.21 381 385.027 379.005 388.578 375.453C392.13 371.902 394.125 367.085 394.125 362.062V278.283C394.125 276.609 393.46 275.003 392.276 273.819C391.092 272.636 389.487 271.97 387.812 271.97C386.138 271.97 384.533 272.636 383.349 273.819C382.165 275.003 381.5 276.609 381.5 278.283V362.062C381.5 363.737 380.835 365.342 379.651 366.526C378.467 367.71 376.862 368.375 375.188 368.375H248.938C247.263 368.375 245.658 367.71 244.474 366.526C243.29 365.342 242.625 363.737 242.625 362.062V235.812C242.625 234.138 243.29 232.533 244.474 231.349C245.658 230.165 247.263 229.5 248.938 229.5H332.717C334.391 229.5 335.997 228.835 337.181 227.651C338.364 226.467 339.029 224.862 339.029 223.188Z" fill="white"/>
<path fill-rule="evenodd" clip-rule="evenodd" d="M432 185.312C432 183.638 431.335 182.033 430.151 180.849C428.967 179.665 427.362 179 425.687 179H362.562C360.888 179 359.283 179.665 358.099 180.849C356.915 182.033 356.25 183.638 356.25 185.312C356.25 186.987 356.915 188.592 358.099 189.776C359.283 190.96 360.888 191.625 362.562 191.625H410.449L307.593 294.468C307.006 295.055 306.541 295.752 306.223 296.519C305.906 297.286 305.742 298.107 305.742 298.938C305.742 299.768 305.906 300.589 306.223 301.356C306.541 302.123 307.006 302.82 307.593 303.407C308.18 303.994 308.877 304.459 309.644 304.777C310.411 305.094 311.232 305.258 312.062 305.258C312.893 305.258 313.714 305.094 314.481 304.777C315.248 304.459 315.945 303.994 316.532 303.407L419.375 200.551V248.438C419.375 250.112 420.04 251.717 421.224 252.901C422.408 254.085 424.013 254.75 425.687 254.75C427.362 254.75 428.967 254.085 430.151 252.901C431.335 251.717 432 250.112 432 248.438V185.312Z" fill="white"/>
</g>
</g>
<defs>
<filter id="filter0_d_8_2" x="-10" y="10" width="2610" height="560" filterUnits="userSpaceOnUse" color-interpolation-filters="sRGB">
<feFlood flood-opacity="0" result="BackgroundImageFix"/>
<feColorMatrix in="SourceAlpha" type="matrix" values="0 0 0 0 0 0 0 0 0 0 0 0 0 0 0 0 0 0 127 0" result="hardAlpha"/>
<feMorphology radius="3" operator="dilate" in="SourceAlpha" result="effect1_dropShadow_8_2"/>
<feOffset dy="10"/>
<feGaussianBlur stdDeviation="27.5"/>
<feComposite in2="hardAlpha" operator="out"/>
<feColorMatrix type="matrix" values="0 0 0 0 0 0 0 0 0 0 0 0 0 0 0 0 0 0 0.25 0"/>
<feBlend mode="normal" in2="BackgroundImageFix" result="effect1_dropShadow_8_2"/>
<feBlend mode="normal" in="SourceGraphic" in2="effect1_dropShadow_8_2" result="shape"/>
</filter>
<clipPath id="clip0_8_2">
<rect width="2589" height="560" fill="white"/>
</clipPath>
<clipPath id="clip1_8_2">
<rect width="202" height="202" fill="white" transform="translate(230 179)"/>
</clipPath>
</defs>
</svg>
