<svg width="4600" height="920" viewBox="0 0 4600 920" fill="none" xmlns="http://www.w3.org/2000/svg">
<rect width="4600" height="920" fill="white"/>
<g filter="url(#filter0_d_8_2)">
<rect x="100" y="100" width="4400" height="720" rx="93" fill="#9A1D2E"/>
</g>
<path d="M900.203 271.179C900.045 270.412 899.671 269.706 899.126 269.144C898.581 268.581 897.887 268.186 897.125 268.005C846.334 255.587 728.977 299.839 665.395 363.395C654.055 374.644 643.716 386.86 634.497 399.904C614.89 398.17 595.283 399.618 578.572 406.902C531.423 427.654 517.696 481.801 513.871 505.094C513.654 506.369 513.736 507.677 514.11 508.914C514.485 510.152 515.141 511.287 516.028 512.228C516.914 513.169 518.007 513.892 519.221 514.34C520.434 514.787 521.735 514.947 523.02 514.806L598.734 506.455C598.788 512.164 599.133 517.866 599.766 523.539C600.147 527.479 601.896 531.161 604.709 533.945L634.029 563.195C636.816 566.005 640.497 567.753 644.435 568.138C650.077 568.769 655.747 569.114 661.423 569.17L653.116 644.789C652.977 646.074 653.138 647.374 653.586 648.587C654.034 649.799 654.757 650.891 655.698 651.778C656.639 652.664 657.772 653.32 659.009 653.695C660.246 654.07 661.554 654.153 662.828 653.938C686.077 650.209 740.32 636.481 760.95 589.332C768.235 572.622 769.726 553.11 768.044 533.598C781.12 524.379 793.367 514.037 804.648 502.692C868.43 439.231 912.431 324.493 900.203 271.179ZM741.014 426.986C735.19 421.166 731.223 413.749 729.614 405.674C728.006 397.599 728.829 389.228 731.978 381.62C735.128 374.013 740.463 367.51 747.309 362.935C754.155 358.36 762.204 355.918 770.437 355.918C778.671 355.918 786.72 358.36 793.566 362.935C800.412 367.51 805.747 374.013 808.897 381.62C812.046 389.228 812.869 397.599 811.261 405.674C809.652 413.749 805.685 421.166 799.861 426.986C795.999 430.854 791.413 433.922 786.364 436.015C781.315 438.109 775.903 439.186 770.437 439.186C764.972 439.186 759.56 438.109 754.511 436.015C749.462 433.922 744.876 430.854 741.014 426.986Z" fill="white"/>
<path d="M632.034 584.381C627.282 589.142 619.66 590.997 610.485 592.584C589.872 596.096 571.669 578.284 575.372 557.446C576.786 549.546 580.966 538.472 583.567 535.87C584.136 535.313 584.514 534.59 584.649 533.805C584.784 533.02 584.667 532.213 584.317 531.497C583.967 530.782 583.4 530.195 582.697 529.821C581.994 529.446 581.191 529.302 580.402 529.41C568.875 530.82 558.151 536.046 549.938 544.256C529.55 564.661 527.625 640.375 527.625 640.375C527.625 640.375 603.382 638.45 623.77 618.045C632.005 609.838 637.238 599.098 638.625 587.555C638.946 583.93 634.532 581.77 632.034 584.381V584.381Z" fill="white"/>
<path d="M1119.8 554.56C1106.66 554.56 1095.22 552.341 1085.5 547.904C1075.77 543.467 1068.26 537.237 1062.97 529.216C1057.68 521.195 1055.03 511.723 1055.03 500.8H1093.43C1093.43 507.115 1095.82 512.149 1100.6 515.904C1105.55 519.488 1112.21 521.28 1120.57 521.28C1128.59 521.28 1134.82 519.488 1139.26 515.904C1143.86 512.32 1146.17 507.371 1146.17 501.056C1146.17 495.595 1144.46 490.901 1141.05 486.976C1137.63 483.051 1132.86 480.405 1126.71 479.04L1107.77 474.688C1091.9 470.933 1079.52 464.021 1070.65 453.952C1061.94 443.712 1057.59 431.253 1057.59 416.576C1057.59 405.653 1060.07 396.181 1065.02 388.16C1070.14 379.968 1077.3 373.653 1086.52 369.216C1095.74 364.779 1106.66 362.56 1119.29 362.56C1138.4 362.56 1153.51 367.339 1164.6 376.896C1175.86 386.283 1181.5 398.997 1181.5 415.04H1143.1C1143.1 409.067 1140.96 404.373 1136.7 400.96C1132.6 397.547 1126.63 395.84 1118.78 395.84C1111.44 395.84 1105.81 397.547 1101.88 400.96C1097.95 404.203 1095.99 408.896 1095.99 415.04C1095.99 420.501 1097.53 425.195 1100.6 429.12C1103.84 432.875 1108.37 435.435 1114.17 436.8L1134.14 441.408C1150.69 445.163 1163.23 451.989 1171.77 461.888C1180.3 471.616 1184.57 484.075 1184.57 499.264C1184.57 510.187 1181.84 519.829 1176.38 528.192C1171.09 536.555 1163.58 543.04 1153.85 547.648C1144.29 552.256 1132.94 554.56 1119.8 554.56ZM1288.66 552C1274.32 552 1263.06 547.904 1254.87 539.712C1246.68 531.52 1242.58 520.256 1242.58 505.92V445.76H1205.46V411.2H1242.58V371.52H1280.98V411.2H1333.46V445.76H1280.98V505.92C1280.98 513.6 1284.82 517.44 1292.5 517.44H1330.9V552H1288.66ZM1426.8 554.56C1407.86 554.56 1393.01 549.44 1382.26 539.2C1371.67 528.96 1366.38 514.965 1366.38 497.216V411.2H1404.78V496.96C1404.78 504.811 1406.66 510.869 1410.42 515.136C1414.17 519.232 1419.63 521.28 1426.8 521.28C1433.8 521.28 1439.17 519.232 1442.93 515.136C1446.85 510.869 1448.82 504.811 1448.82 496.96V411.2H1487.22V497.216C1487.22 515.136 1481.84 529.216 1471.09 539.456C1460.34 549.525 1445.57 554.56 1426.8 554.56ZM1581.32 554.56C1568.87 554.56 1557.94 552.256 1548.56 547.648C1539.17 542.869 1531.83 536.299 1526.54 527.936C1521.42 519.403 1518.86 509.504 1518.86 498.24V418.88C1518.86 407.445 1521.42 397.547 1526.54 389.184C1531.83 380.821 1539.17 374.336 1548.56 369.728C1557.94 364.949 1568.87 362.56 1581.32 362.56C1593.95 362.56 1604.88 364.949 1614.09 369.728C1623.48 374.336 1630.73 380.821 1635.85 389.184C1641.14 397.547 1643.79 407.445 1643.79 418.88H1605.39C1605.39 411.371 1603.25 405.653 1598.99 401.728C1594.89 397.803 1589 395.84 1581.32 395.84C1573.64 395.84 1567.67 397.803 1563.4 401.728C1559.31 405.653 1557.26 411.371 1557.26 418.88V498.24C1557.26 505.579 1559.31 511.296 1563.4 515.392C1567.67 519.317 1573.64 521.28 1581.32 521.28C1589 521.28 1594.89 519.317 1598.99 515.392C1603.25 511.296 1605.39 505.579 1605.39 498.24H1643.79C1643.79 509.504 1641.14 519.403 1635.85 527.936C1630.73 536.299 1623.48 542.869 1614.09 547.648C1604.88 552.256 1593.95 554.56 1581.32 554.56ZM1733.8 554.56C1721.34 554.56 1710.5 552.256 1701.29 547.648C1692.07 542.869 1684.9 536.299 1679.78 527.936C1674.83 519.403 1672.36 509.504 1672.36 498.24V464.96C1672.36 453.696 1674.83 443.883 1679.78 435.52C1684.9 426.987 1692.07 420.416 1701.29 415.808C1710.5 411.029 1721.34 408.64 1733.8 408.64C1746.43 408.64 1757.27 411.029 1766.31 415.808C1775.53 420.416 1782.61 426.987 1787.56 435.52C1792.68 443.883 1795.24 453.696 1795.24 464.96V498.24C1795.24 509.504 1792.68 519.403 1787.56 527.936C1782.61 536.299 1775.53 542.869 1766.31 547.648C1757.27 552.256 1746.43 554.56 1733.8 554.56ZM1733.8 521.28C1741.31 521.28 1747.03 519.317 1750.95 515.392C1754.88 511.296 1756.84 505.579 1756.84 498.24V464.96C1756.84 457.451 1754.88 451.733 1750.95 447.808C1747.03 443.883 1741.31 441.92 1733.8 441.92C1726.46 441.92 1720.74 443.883 1716.65 447.808C1712.72 451.733 1710.76 457.451 1710.76 464.96V498.24C1710.76 505.579 1712.72 511.296 1716.65 515.392C1720.74 519.317 1726.46 521.28 1733.8 521.28ZM2021.6 552V400.96H1974.24V365.12H2107.36V400.96H2060V552H2021.6ZM2194.56 554.56C2182.1 554.56 2171.17 552.256 2161.79 547.648C2152.57 542.869 2145.4 536.299 2140.28 527.936C2135.33 519.403 2132.86 509.504 2132.86 498.24V464.96C2132.86 453.696 2135.33 443.883 2140.28 435.52C2145.4 426.987 2152.57 420.416 2161.79 415.808C2171.17 411.029 2182.1 408.64 2194.56 408.64C2207.01 408.64 2217.77 411.029 2226.81 415.808C2236.03 420.416 2243.11 426.987 2248.06 435.52C2253.18 443.883 2255.74 453.696 2255.74 464.96V490.56H2169.47V498.24C2169.47 507.115 2171.6 513.856 2175.87 518.464C2180.13 522.901 2186.53 525.12 2195.07 525.12C2201.04 525.12 2205.82 524.096 2209.4 522.048C2213.16 520 2215.63 517.184 2216.83 513.6H2254.46C2251.39 525.888 2244.39 535.787 2233.47 543.296C2222.72 550.805 2209.75 554.56 2194.56 554.56ZM2219.13 470.848V464.448C2219.13 455.744 2217.08 449.088 2212.99 444.48C2209.06 439.872 2202.92 437.568 2194.56 437.568C2186.19 437.568 2179.88 439.957 2175.61 444.736C2171.52 449.515 2169.47 456.256 2169.47 464.96V468.8L2221.69 468.288L2219.13 470.848ZM2348.57 554.56C2336.11 554.56 2325.19 552.256 2315.8 547.648C2306.41 542.869 2299.16 536.299 2294.04 527.936C2288.92 519.403 2286.36 509.504 2286.36 498.24V464.96C2286.36 453.525 2288.92 443.627 2294.04 435.264C2299.16 426.901 2306.41 420.416 2315.8 415.808C2325.19 411.029 2336.11 408.64 2348.57 408.64C2367.17 408.64 2382.02 413.333 2393.11 422.72C2404.21 432.107 2410.09 444.907 2410.78 461.12H2372.38C2371.86 455.147 2369.47 450.453 2365.21 447.04C2361.11 443.627 2355.57 441.92 2348.57 441.92C2340.89 441.92 2335 443.883 2330.9 447.808C2326.81 451.733 2324.76 457.451 2324.76 464.96V498.24C2324.76 505.579 2326.81 511.296 2330.9 515.392C2335 519.317 2340.89 521.28 2348.57 521.28C2355.57 521.28 2361.11 519.659 2365.21 516.416C2369.47 513.003 2371.86 508.224 2372.38 502.08H2410.78C2410.09 518.293 2404.21 531.093 2393.11 540.48C2382.02 549.867 2367.17 554.56 2348.57 554.56ZM2441.4 552V365.12H2479.8V411.2L2478.52 438.08H2489.78L2478.52 447.04C2478.52 435.093 2481.93 425.707 2488.76 418.88C2495.58 412.053 2504.8 408.64 2516.4 408.64C2530.06 408.64 2540.98 413.419 2549.17 422.976C2557.53 432.533 2561.72 445.248 2561.72 461.12V552H2523.32V464.96C2523.32 457.621 2521.35 451.989 2517.43 448.064C2513.67 443.968 2508.3 441.92 2501.3 441.92C2494.47 441.92 2489.18 443.968 2485.43 448.064C2481.67 451.989 2479.8 457.621 2479.8 464.96V552H2441.4ZM2809.32 554.56C2796.87 554.56 2785.94 552.256 2776.56 547.648C2767.17 542.869 2759.83 536.299 2754.54 527.936C2749.42 519.403 2746.86 509.504 2746.86 498.24V418.88C2746.86 407.445 2749.42 397.547 2754.54 389.184C2759.83 380.821 2767.17 374.336 2776.56 369.728C2785.94 364.949 2796.87 362.56 2809.32 362.56C2821.95 362.56 2832.88 364.949 2842.09 369.728C2851.48 374.336 2858.73 380.821 2863.85 389.184C2869.14 397.547 2871.79 407.445 2871.79 418.88H2833.39C2833.39 411.371 2831.25 405.653 2826.99 401.728C2822.89 397.803 2817 395.84 2809.32 395.84C2801.64 395.84 2795.67 397.803 2791.4 401.728C2787.31 405.653 2785.26 411.371 2785.26 418.88V498.24C2785.26 505.579 2787.31 511.296 2791.4 515.392C2795.67 519.317 2801.64 521.28 2809.32 521.28C2817 521.28 2822.89 519.317 2826.99 515.392C2831.25 511.296 2833.39 505.579 2833.39 498.24H2871.79C2871.79 509.504 2869.14 519.403 2863.85 527.936C2858.73 536.299 2851.48 542.869 2842.09 547.648C2832.88 552.256 2821.95 554.56 2809.32 554.56ZM2961.8 554.56C2949.34 554.56 2938.5 552.256 2929.29 547.648C2920.07 542.869 2912.9 536.299 2907.78 527.936C2902.83 519.403 2900.36 509.504 2900.36 498.24V464.96C2900.36 453.696 2902.83 443.883 2907.78 435.52C2912.9 426.987 2920.07 420.416 2929.29 415.808C2938.5 411.029 2949.34 408.64 2961.8 408.64C2974.43 408.64 2985.27 411.029 2994.31 415.808C3003.53 420.416 3010.61 426.987 3015.56 435.52C3020.68 443.883 3023.24 453.696 3023.24 464.96V498.24C3023.24 509.504 3020.68 519.403 3015.56 527.936C3010.61 536.299 3003.53 542.869 2994.31 547.648C2985.27 552.256 2974.43 554.56 2961.8 554.56ZM2961.8 521.28C2969.31 521.28 2975.03 519.317 2978.95 515.392C2982.88 511.296 2984.84 505.579 2984.84 498.24V464.96C2984.84 457.451 2982.88 451.733 2978.95 447.808C2975.03 443.883 2969.31 441.92 2961.8 441.92C2954.46 441.92 2948.74 443.883 2944.65 447.808C2940.72 451.733 2938.76 457.451 2938.76 464.96V498.24C2938.76 505.579 2940.72 511.296 2944.65 515.392C2948.74 519.317 2954.46 521.28 2961.8 521.28ZM3049.25 552V411.2H3079.46V431.68H3085.6L3080.74 435.264C3080.74 427.243 3083.04 420.843 3087.65 416.064C3092.26 411.115 3097.98 408.64 3104.8 408.64C3112.14 408.64 3117.86 411.797 3121.96 418.112C3126.05 424.427 3128.1 432.789 3128.1 443.2L3123.49 431.68H3130.66L3128.36 435.264C3128.36 427.243 3130.57 420.843 3135.01 416.064C3139.45 411.115 3145.42 408.64 3152.93 408.64C3161.47 408.64 3168.38 411.883 3173.67 418.368C3178.96 424.683 3181.6 433.387 3181.6 444.48V552H3148.58V447.04C3148.58 443.115 3147.73 440.128 3146.02 438.08C3144.31 435.861 3141.84 434.752 3138.6 434.752C3135.35 434.752 3132.88 435.861 3131.17 438.08C3129.47 440.128 3128.61 443.115 3128.61 447.04V552H3102.24V447.04C3102.24 443.115 3101.39 440.128 3099.68 438.08C3097.98 435.861 3095.5 434.752 3092.26 434.752C3089.02 434.752 3086.54 435.861 3084.84 438.08C3083.13 440.128 3082.28 443.115 3082.28 447.04V552H3049.25ZM3202.75 552V411.2H3232.96V431.68H3239.1L3234.24 435.264C3234.24 427.243 3236.54 420.843 3241.15 416.064C3245.76 411.115 3251.48 408.64 3258.3 408.64C3265.64 408.64 3271.36 411.797 3275.46 418.112C3279.55 424.427 3281.6 432.789 3281.6 443.2L3276.99 431.68H3284.16L3281.86 435.264C3281.86 427.243 3284.07 420.843 3288.51 416.064C3292.95 411.115 3298.92 408.64 3306.43 408.64C3314.97 408.64 3321.88 411.883 3327.17 418.368C3332.46 424.683 3335.1 433.387 3335.1 444.48V552H3302.08V447.04C3302.08 443.115 3301.23 440.128 3299.52 438.08C3297.81 435.861 3295.34 434.752 3292.1 434.752C3288.85 434.752 3286.38 435.861 3284.67 438.08C3282.97 440.128 3282.11 443.115 3282.11 447.04V552H3255.74V447.04C3255.74 443.115 3254.89 440.128 3253.18 438.08C3251.48 435.861 3249 434.752 3245.76 434.752C3242.52 434.752 3240.04 435.861 3238.34 438.08C3236.63 440.128 3235.78 443.115 3235.78 447.04V552H3202.75ZM3363.42 552V517.184H3412.06V445.76H3369.82V411.2H3447.9V517.184H3488.86V552H3363.42ZM3427.42 388.928C3420.42 388.928 3414.79 387.136 3410.52 383.552C3406.43 379.968 3404.38 375.104 3404.38 368.96C3404.38 362.816 3406.43 357.952 3410.52 354.368C3414.79 350.784 3420.42 348.992 3427.42 348.992C3434.42 348.992 3439.96 350.784 3444.06 354.368C3448.33 357.952 3450.46 362.816 3450.46 368.96C3450.46 375.104 3448.33 379.968 3444.06 383.552C3439.96 387.136 3434.42 388.928 3427.42 388.928ZM3591.16 552C3576.82 552 3565.56 547.904 3557.37 539.712C3549.18 531.52 3545.08 520.256 3545.08 505.92V445.76H3507.96V411.2H3545.08V371.52H3583.48V411.2H3635.96V445.76H3583.48V505.92C3583.48 513.6 3587.32 517.44 3595 517.44H3633.4V552H3591.16ZM3744.66 552C3730.32 552 3719.06 547.904 3710.87 539.712C3702.68 531.52 3698.58 520.256 3698.58 505.92V445.76H3661.46V411.2H3698.58V371.52H3736.98V411.2H3789.46V445.76H3736.98V505.92C3736.98 513.6 3740.82 517.44 3748.5 517.44H3786.9V552H3744.66ZM3883.06 554.56C3870.6 554.56 3859.67 552.256 3850.29 547.648C3841.07 542.869 3833.9 536.299 3828.78 527.936C3823.83 519.403 3821.36 509.504 3821.36 498.24V464.96C3821.36 453.696 3823.83 443.883 3828.78 435.52C3833.9 426.987 3841.07 420.416 3850.29 415.808C3859.67 411.029 3870.6 408.64 3883.06 408.64C3895.51 408.64 3906.27 411.029 3915.31 415.808C3924.53 420.416 3931.61 426.987 3936.56 435.52C3941.68 443.883 3944.24 453.696 3944.24 464.96V490.56H3857.97V498.24C3857.97 507.115 3860.1 513.856 3864.37 518.464C3868.63 522.901 3875.03 525.12 3883.57 525.12C3889.54 525.12 3894.32 524.096 3897.9 522.048C3901.66 520 3904.13 517.184 3905.33 513.6H3942.96C3939.89 525.888 3932.89 535.787 3921.97 543.296C3911.22 550.805 3898.25 554.56 3883.06 554.56ZM3907.63 470.848V464.448C3907.63 455.744 3905.58 449.088 3901.49 444.48C3897.56 439.872 3891.42 437.568 3883.06 437.568C3874.69 437.568 3868.38 439.957 3864.11 444.736C3860.02 449.515 3857.97 456.256 3857.97 464.96V468.8L3910.19 468.288L3907.63 470.848ZM4036.56 554.56C4024.1 554.56 4013.17 552.256 4003.79 547.648C3994.57 542.869 3987.4 536.299 3982.28 527.936C3977.33 519.403 3974.86 509.504 3974.86 498.24V464.96C3974.86 453.696 3977.33 443.883 3982.28 435.52C3987.4 426.987 3994.57 420.416 4003.79 415.808C4013.17 411.029 4024.1 408.64 4036.56 408.64C4049.01 408.64 4059.77 411.029 4068.81 415.808C4078.03 420.416 4085.11 426.987 4090.06 435.52C4095.18 443.883 4097.74 453.696 4097.74 464.96V490.56H4011.47V498.24C4011.47 507.115 4013.6 513.856 4017.87 518.464C4022.13 522.901 4028.53 525.12 4037.07 525.12C4043.04 525.12 4047.82 524.096 4051.4 522.048C4055.16 520 4057.63 517.184 4058.83 513.6H4096.46C4093.39 525.888 4086.39 535.787 4075.47 543.296C4064.72 550.805 4051.75 554.56 4036.56 554.56ZM4061.13 470.848V464.448C4061.13 455.744 4059.08 449.088 4054.99 444.48C4051.06 439.872 4044.92 437.568 4036.56 437.568C4028.19 437.568 4021.88 439.957 4017.61 444.736C4013.52 449.515 4011.47 456.256 4011.47 464.96V468.8L4063.69 468.288L4061.13 470.848Z" fill="white"/>
<defs>
<filter id="filter0_d_8_2" x="42" y="52" width="4516" height="836" filterUnits="userSpaceOnUse" color-interpolation-filters="sRGB">
<feFlood flood-opacity="0" result="BackgroundImageFix"/>
<feColorMatrix in="SourceAlpha" type="matrix" values="0 0 0 0 0 0 0 0 0 0 0 0 0 0 0 0 0 0 127 0" result="hardAlpha"/>
<feMorphology radius="3" operator="dilate" in="SourceAlpha" result="effect1_dropShadow_8_2"/>
<feOffset dy="10"/>
<feGaussianBlur stdDeviation="27.5"/>
<feComposite in2="hardAlpha" operator="out"/>
<feColorMatrix type="matrix" values="0 0 0 0 0 0 0 0 0 0 0 0 0 0 0 0 0 0 0.25 0"/>
<feBlend mode="normal" in2="BackgroundImageFix" result="effect1_dropShadow_8_2"/>
<feBlend mode="normal" in="SourceGraphic" in2="effect1_dropShadow_8_2" result="shape"/>
</filter>
</defs>
</svg>
